<?xml version="1.0" encoding="UTF-8" standalone="no"?>
<!-- Created with Inkscape (http://www.inkscape.org/) -->

<svg
   width="124.19931mm"
   height="121.13531mm"
   viewBox="0 0 124.19931 121.13531"
   version="1.1"
   id="svg1"
   xml:space="preserve"
   sodipodi:docname="github_white.svg"
   xmlns:inkscape="http://www.inkscape.org/namespaces/inkscape"
   xmlns:sodipodi="http://sodipodi.sourceforge.net/DTD/sodipodi-0.dtd"
   xmlns="http://www.w3.org/2000/svg"
   xmlns:svg="http://www.w3.org/2000/svg"><sodipodi:namedview
     id="namedview1"
     pagecolor="#ffffff"
     bordercolor="#000000"
     borderopacity="0.25"
     inkscape:showpageshadow="2"
     inkscape:pageopacity="0.0"
     inkscape:pagecheckerboard="0"
     inkscape:deskcolor="#d1d1d1"
     inkscape:document-units="mm"><inkscape:page
       x="0"
       y="0"
       width="124.19931"
       height="121.13531"
       id="page2"
       margin="0"
       bleed="0" /></sodipodi:namedview><defs
     id="defs1" /><g
     id="layer1"
     inkscape:export-filename="github_white.svg"
     inkscape:export-xdpi="96"
     inkscape:export-ydpi="96"
     transform="translate(-45.284427,-23.518768)"><path
       fill-rule="evenodd"
       clip-rule="evenodd"
       d="m 107.38407,23.518768 c -34.310053,0 -62.099642,27.789589 -62.099642,62.09964 0,27.479092 17.776022,50.688832 42.460629,58.917032 3.104982,0.54337 4.26935,-1.31962 4.26935,-2.94973 0,-1.47487 -0.07762,-6.36521 -0.07762,-11.56606 -15.602535,2.87211 -19.639012,-3.8036 -20.881004,-7.29671 -0.698621,-1.78536 -3.725979,-7.2967 -6.365214,-8.77157 -2.173487,-1.16437 -5.278469,-4.03648 -0.07762,-4.1141 4.890347,-0.0776 8.383451,4.50222 9.54782,6.36521 5.588967,9.39257 14.51579,6.75334 18.08652,5.12322 0.543372,-4.03648 2.173487,-6.75333 3.958852,-8.30583 -13.81717,-1.55249 -28.255336,-6.90858 -28.255336,-30.661693 0,-6.753336 2.406361,-12.342304 6.365213,-16.689278 -0.620997,-1.552491 -2.794484,-7.917704 0.620996,-16.456405 0,0 5.200845,-1.630115 17.077401,6.365213 4.967971,-1.397242 10.246445,-2.095863 15.524915,-2.095863 5.27847,0 10.55694,0.698621 15.52491,2.095863 11.87655,-8.072953 17.0774,-6.365213 17.0774,-6.365213 3.41548,8.538701 1.24199,14.903914 0.62099,16.456405 3.95886,4.346974 6.36522,9.858317 6.36522,16.689278 0,23.830733 -14.51579,29.109203 -28.33296,30.661693 2.25111,1.94062 4.19172,5.6666 4.19172,11.48844 0,8.30582 -0.0776,14.98154 -0.0776,17.0774 0,1.63011 1.16437,3.57073 4.26935,2.94973 24.52936,-8.2282 42.30538,-31.51557 42.30538,-58.917032 0,-34.310051 -27.78959,-62.09964 -62.09964,-62.09964 z"
       fill="#1b1f23"
       id="path1"
       style="display:inline;fill:#ffffff;stroke-width:7.76245" /></g></svg>
