<?xml version="1.0" encoding="UTF-8" standalone="no"?>
<svg xmlns="http://www.w3.org/2000/svg" width="512" height="512" viewBox="0 0 512 512">
  <defs>
    <linearGradient id="bgGradient" x1="0" y1="0" x2="1" y2="1">
      <stop offset="0%" stop-color="#0B1628"/>
      <stop offset="55%" stop-color="#071120"/>
      <stop offset="100%" stop-color="#050A13"/>
    </linearGradient>
    <linearGradient id="pulseGradient" x1="56" y1="0" x2="456" y2="0" gradientUnits="userSpaceOnUse">
      <stop offset="0%" stop-color="#22D3FF"/>
      <stop offset="48%" stop-color="#2563EB"/>
      <stop offset="100%" stop-color="#A855F7"/>
    </linearGradient>
    <radialGradient id="halo" cx="50%" cy="48%" r="55%">
      <stop offset="0%" stop-color="#2563EB" stop-opacity="0.13"/>
      <stop offset="100%" stop-color="#2563EB" stop-opacity="0"/>
    </radialGradient>
  </defs>

  <!-- Rounded application tile -->
  <rect x="20" y="20" width="472" height="472" rx="108" fill="url(#bgGradient)"/>
  <rect x="21" y="21" width="470" height="470" rx="107" fill="none" stroke="#17304D" stroke-width="2"/>
  <circle cx="256" cy="246" r="210" fill="url(#halo)"/>

  <!-- Symmetric DSD / digital pulse waveform -->
  <g>
    <circle cx="56.0" cy="256.0" r="9.5" fill="url(#pulseGradient)"/><circle cx="81.0" cy="231.0" r="9.5" fill="url(#pulseGradient)"/><circle cx="81.0" cy="256.0" r="9.5" fill="url(#pulseGradient)"/><circle cx="81.0" cy="281.0" r="9.5" fill="url(#pulseGradient)"/><circle cx="106.0" cy="206.0" r="9.5" fill="url(#pulseGradient)"/><circle cx="106.0" cy="231.0" r="9.5" fill="url(#pulseGradient)"/><circle cx="106.0" cy="256.0" r="9.5" fill="url(#pulseGradient)"/><circle cx="106.0" cy="281.0" r="9.5" fill="url(#pulseGradient)"/><circle cx="106.0" cy="306.0" r="9.5" fill="url(#pulseGradient)"/><circle cx="131.0" cy="181.0" r="9.5" fill="url(#pulseGradient)"/><circle cx="131.0" cy="206.0" r="9.5" fill="url(#pulseGradient)"/><circle cx="131.0" cy="231.0" r="9.5" fill="url(#pulseGradient)"/><circle cx="131.0" cy="256.0" r="9.5" fill="url(#pulseGradient)"/><circle cx="131.0" cy="281.0" r="9.5" fill="url(#pulseGradient)"/><circle cx="131.0" cy="306.0" r="9.5" fill="url(#pulseGradient)"/><circle cx="131.0" cy="331.0" r="9.5" fill="url(#pulseGradient)"/><circle cx="156.0" cy="156.0" r="9.5" fill="url(#pulseGradient)"/><circle cx="156.0" cy="181.0" r="9.5" fill="url(#pulseGradient)"/><circle cx="156.0" cy="206.0" r="9.5" fill="url(#pulseGradient)"/><circle cx="156.0" cy="231.0" r="9.5" fill="url(#pulseGradient)"/><circle cx="156.0" cy="256.0" r="9.5" fill="url(#pulseGradient)"/><circle cx="156.0" cy="281.0" r="9.5" fill="url(#pulseGradient)"/><circle cx="156.0" cy="306.0" r="9.5" fill="url(#pulseGradient)"/><circle cx="156.0" cy="331.0" r="9.5" fill="url(#pulseGradient)"/><circle cx="156.0" cy="356.0" r="9.5" fill="url(#pulseGradient)"/><circle cx="181.0" cy="181.0" r="9.5" fill="url(#pulseGradient)"/><circle cx="181.0" cy="206.0" r="9.5" fill="url(#pulseGradient)"/><circle cx="181.0" cy="231.0" r="9.5" fill="url(#pulseGradient)"/><circle cx="181.0" cy="256.0" r="9.5" fill="url(#pulseGradient)"/><circle cx="181.0" cy="281.0" r="9.5" fill="url(#pulseGradient)"/><circle cx="181.0" cy="306.0" r="9.5" fill="url(#pulseGradient)"/><circle cx="181.0" cy="331.0" r="9.5" fill="url(#pulseGradient)"/><circle cx="206.0" cy="206.0" r="9.5" fill="url(#pulseGradient)"/><circle cx="206.0" cy="231.0" r="9.5" fill="url(#pulseGradient)"/><circle cx="206.0" cy="256.0" r="9.5" fill="url(#pulseGradient)"/><circle cx="206.0" cy="281.0" r="9.5" fill="url(#pulseGradient)"/><circle cx="206.0" cy="306.0" r="9.5" fill="url(#pulseGradient)"/><circle cx="231.0" cy="231.0" r="9.5" fill="url(#pulseGradient)"/><circle cx="231.0" cy="256.0" r="9.5" fill="url(#pulseGradient)"/><circle cx="231.0" cy="281.0" r="9.5" fill="url(#pulseGradient)"/><circle cx="256.0" cy="256.0" r="9.5" fill="url(#pulseGradient)"/><circle cx="281.0" cy="231.0" r="9.5" fill="url(#pulseGradient)"/><circle cx="281.0" cy="256.0" r="9.5" fill="url(#pulseGradient)"/><circle cx="281.0" cy="281.0" r="9.5" fill="url(#pulseGradient)"/><circle cx="306.0" cy="206.0" r="9.5" fill="url(#pulseGradient)"/><circle cx="306.0" cy="231.0" r="9.5" fill="url(#pulseGradient)"/><circle cx="306.0" cy="256.0" r="9.5" fill="url(#pulseGradient)"/><circle cx="306.0" cy="281.0" r="9.5" fill="url(#pulseGradient)"/><circle cx="306.0" cy="306.0" r="9.5" fill="url(#pulseGradient)"/><circle cx="331.0" cy="181.0" r="9.5" fill="url(#pulseGradient)"/><circle cx="331.0" cy="206.0" r="9.5" fill="url(#pulseGradient)"/><circle cx="331.0" cy="231.0" r="9.5" fill="url(#pulseGradient)"/><circle cx="331.0" cy="256.0" r="9.5" fill="url(#pulseGradient)"/><circle cx="331.0" cy="281.0" r="9.5" fill="url(#pulseGradient)"/><circle cx="331.0" cy="306.0" r="9.5" fill="url(#pulseGradient)"/><circle cx="331.0" cy="331.0" r="9.5" fill="url(#pulseGradient)"/><circle cx="356.0" cy="156.0" r="9.5" fill="url(#pulseGradient)"/><circle cx="356.0" cy="181.0" r="9.5" fill="url(#pulseGradient)"/><circle cx="356.0" cy="206.0" r="9.5" fill="url(#pulseGradient)"/><circle cx="356.0" cy="231.0" r="9.5" fill="url(#pulseGradient)"/><circle cx="356.0" cy="256.0" r="9.5" fill="url(#pulseGradient)"/><circle cx="356.0" cy="281.0" r="9.5" fill="url(#pulseGradient)"/><circle cx="356.0" cy="306.0" r="9.5" fill="url(#pulseGradient)"/><circle cx="356.0" cy="331.0" r="9.5" fill="url(#pulseGradient)"/><circle cx="356.0" cy="356.0" r="9.5" fill="url(#pulseGradient)"/><circle cx="381.0" cy="181.0" r="9.5" fill="url(#pulseGradient)"/><circle cx="381.0" cy="206.0" r="9.5" fill="url(#pulseGradient)"/><circle cx="381.0" cy="231.0" r="9.5" fill="url(#pulseGradient)"/><circle cx="381.0" cy="256.0" r="9.5" fill="url(#pulseGradient)"/><circle cx="381.0" cy="281.0" r="9.5" fill="url(#pulseGradient)"/><circle cx="381.0" cy="306.0" r="9.5" fill="url(#pulseGradient)"/><circle cx="381.0" cy="331.0" r="9.5" fill="url(#pulseGradient)"/><circle cx="406.0" cy="206.0" r="9.5" fill="url(#pulseGradient)"/><circle cx="406.0" cy="231.0" r="9.5" fill="url(#pulseGradient)"/><circle cx="406.0" cy="256.0" r="9.5" fill="url(#pulseGradient)"/><circle cx="406.0" cy="281.0" r="9.5" fill="url(#pulseGradient)"/><circle cx="406.0" cy="306.0" r="9.5" fill="url(#pulseGradient)"/><circle cx="431.0" cy="231.0" r="9.5" fill="url(#pulseGradient)"/><circle cx="431.0" cy="256.0" r="9.5" fill="url(#pulseGradient)"/><circle cx="431.0" cy="281.0" r="9.5" fill="url(#pulseGradient)"/><circle cx="456.0" cy="256.0" r="9.5" fill="url(#pulseGradient)"/>
  </g>
</svg>
